<svg width="45" height="45" viewBox="0 0 45 45" fill="none" xmlns="http://www.w3.org/2000/svg">
<path d="M5.625 4.21875V40.7812H21.0938V35.1562H23.9062V40.7812H39.375V4.21875H5.625ZM8.4375 7.03125H36.5625V37.9688H26.7188V32.3438H18.2812V37.9688H8.4375V7.03125ZM11.25 9.84375V12.6562H16.875V9.84375H11.25ZM19.6875 9.84375V12.6562H25.3125V9.84375H19.6875ZM28.125 9.84375V12.6562H33.75V9.84375H28.125ZM11.25 15.4688V18.2812H16.875V15.4688H11.25ZM19.6875 15.4688V18.2812H25.3125V15.4688H19.6875ZM28.125 15.4688V18.2812H33.75V15.4688H28.125ZM11.25 21.0938V23.9062H16.875V21.0938H11.25ZM19.6875 21.0938V23.9062H25.3125V21.0938H19.6875ZM28.125 21.0938V23.9062H33.75V21.0938H28.125ZM11.25 26.7188V29.5312H16.875V26.7188H11.25ZM19.6875 26.7188V29.5312H25.3125V26.7188H19.6875ZM28.125 26.7188V29.5312H33.75V26.7188H28.125ZM11.25 32.3438V35.1562H16.875V32.3438H11.25ZM28.125 32.3438V35.1562H33.75V32.3438H28.125Z" fill="#008060"/>
</svg>
